<svg width="304" height="56" viewBox="0 0 304 56" fill="none" xmlns="http://www.w3.org/2000/svg">
<path d="M23.3792 13.4286C23.6511 13.4286 23.8714 13.6479 23.8714 13.9184V17.2973C23.8714 17.5678 23.6511 17.787 23.3792 17.787H15.258C14.9862 17.787 14.7658 18.0063 14.7658 18.2768V45.5102C14.7658 45.7807 14.5455 46 14.2736 46H9.64701C9.37518 46 9.15482 45.7807 9.15482 45.5102V18.2768C9.15482 18.0063 8.93446 17.787 8.66262 17.787H0.492195C0.220364 17.787 0 17.5678 0 17.2973V13.9184C0 13.6479 0.220364 13.4286 0.492195 13.4286H23.3792Z" fill="#fff"/>
<path d="M35.0719 46C32.5444 46 30.2599 45.4577 28.2184 44.3731C26.177 43.2575 24.573 41.708 23.4064 39.7248C22.2398 37.7105 21.6566 35.3863 21.6566 32.7523C21.6566 30.1492 22.256 27.8405 23.455 25.8263C24.654 23.812 26.2904 22.2625 28.3643 21.1779C30.4381 20.0933 32.755 19.551 35.315 19.551C37.8749 19.551 40.1918 20.0933 42.2657 21.1779C44.3396 22.2625 45.976 23.812 47.1749 25.8263C48.3739 27.8405 48.9734 30.1492 48.9734 32.7523C48.9734 35.3553 48.3577 37.664 47.1263 39.6783C45.895 41.6925 44.2099 43.2575 42.0713 44.3731C39.965 45.4577 37.6319 46 35.0719 46ZM35.0719 41.3982C36.4977 41.3982 37.8263 41.0728 39.0577 40.422C40.3214 39.7712 41.3422 38.7951 42.1199 37.4936C42.8976 36.192 43.2864 34.6116 43.2864 32.7523C43.2864 30.8929 42.9138 29.328 42.1685 28.0575C41.4232 26.7559 40.4348 25.7798 39.2035 25.129C37.9721 24.4782 36.6435 24.1529 35.2178 24.1529C33.792 24.1529 32.4634 24.4782 31.232 25.129C30.0331 25.7798 29.0771 26.7559 28.3643 28.0575C27.6514 29.328 27.2949 30.8929 27.2949 32.7523C27.2949 35.5103 28.024 37.6485 29.4822 39.167C30.9728 40.6544 32.836 41.3982 35.0719 41.3982Z" fill="#fff"/>
<path d="M64.0436 32.8256C63.8574 33.0159 63.8576 33.3193 64.044 33.5094L75.4746 45.1682C75.7788 45.4784 75.5579 46 75.1223 46H68.8799C68.7413 46 68.609 45.9418 68.5157 45.8397L59.414 35.8781C59.1113 35.5469 58.5576 35.76 58.5576 36.2076V45.5102C58.5576 45.7807 58.3372 46 58.0654 46H53.4031C53.1313 46 52.9109 45.7807 52.9109 45.5102V11.9592C52.9109 11.6887 53.1313 11.4694 53.4031 11.4694H58.0654C58.3372 11.4694 58.5576 11.6887 58.5576 11.9592V30.2411C58.5576 30.6921 59.1183 30.9034 59.4185 30.5656L69.0584 19.7164C69.1519 19.6112 69.2861 19.551 69.4272 19.551H75.8653C76.3006 19.551 76.5216 20.0721 76.2179 20.3825L64.0436 32.8256Z" fill="#fff"/>
<path d="M103.115 32.148C103.115 32.9427 103.07 33.6737 102.981 34.3412C102.949 34.5784 102.743 34.751 102.502 34.751H82.8449C82.5577 34.751 82.3301 34.9952 82.3695 35.2783C82.6199 37.0804 83.4002 38.5471 84.7105 39.6783C86.1463 40.9178 87.9084 41.5376 89.9968 41.5376C92.8868 41.5376 94.9603 40.432 96.2173 38.2208C96.308 38.0615 96.4756 37.9584 96.6596 37.9584H101.69C102.028 37.9584 102.265 38.2898 102.137 38.6011C101.284 40.6682 99.8809 42.3908 97.9263 43.7688C95.8053 45.2563 93.1621 46 89.9968 46C87.4189 46 85.1021 45.4577 83.0463 44.3731C81.0231 43.2575 79.4242 41.708 78.2494 39.7248C77.1073 37.7105 76.5363 35.3863 76.5363 32.7523C76.5363 30.1182 77.091 27.8095 78.2005 25.8263C79.3426 23.812 80.9252 22.2625 82.9484 21.1779C85.0042 20.0933 87.3537 19.551 89.9968 19.551C92.5421 19.551 94.81 20.0778 96.8006 21.1314C98.7911 22.1851 100.341 23.6725 101.451 25.5938C102.56 27.4842 103.115 29.6689 103.115 32.148ZM96.7896 30.4746C97.0646 30.4746 97.2881 30.2499 97.2658 29.9771C97.1252 28.2547 96.3991 26.8556 95.0874 25.7798C93.6516 24.6022 91.8732 24.0134 89.7521 24.0134C87.8268 24.0134 86.1789 24.6022 84.8084 25.7798C83.5674 26.818 82.7812 28.1993 82.4499 29.9236C82.3941 30.2141 82.6247 30.4746 82.9219 30.4746H96.7896Z" fill="#fff"/>
<path d="M120.627 19.551C122.743 19.551 124.631 19.9761 126.291 20.8262C127.984 21.6764 129.302 22.9359 130.246 24.6047C131.19 26.2735 131.662 28.2886 131.662 30.6501V45.5102C131.662 45.7807 131.442 46 131.17 46H126.637C126.365 46 126.144 45.7807 126.144 45.5102V31.4531C126.144 29.123 125.542 27.344 124.338 26.116C123.133 24.8566 121.489 24.2268 119.406 24.2268C117.323 24.2268 115.663 24.8566 114.426 26.116C113.221 27.344 112.619 29.123 112.619 31.4531V45.5102C112.619 45.7807 112.398 46 112.127 46H107.545C107.273 46 107.052 45.7807 107.052 45.5102V20.0408C107.052 19.7703 107.273 19.551 107.545 19.551H112.127C112.398 19.551 112.619 19.7703 112.619 20.0408V21.6158C112.619 22.0719 113.215 22.3015 113.562 22.0026C114.289 21.3746 115.131 20.8565 116.086 20.4484C117.518 19.8501 119.032 19.551 120.627 19.551Z" fill="#fff"/>
<path d="M139.193 16.826C138.175 16.826 137.322 16.4987 136.633 15.8442C135.944 15.1896 135.6 14.3792 135.6 13.413C135.6 12.4468 135.944 11.6364 136.633 10.9818C137.322 10.3273 138.175 10 139.193 10C140.177 10 141.014 10.3273 141.703 10.9818C142.392 11.6364 142.736 12.4468 142.736 13.413C142.736 14.3792 142.392 15.1896 141.703 15.8442C141.014 16.4987 140.177 16.826 139.193 16.826ZM141.639 19.551C141.912 19.551 142.133 19.7724 142.131 20.0442L141.952 45.5136C141.95 45.7828 141.731 46 141.46 46H136.83C136.558 46 136.338 45.7807 136.338 45.5102V20.0408C136.338 19.7703 136.558 19.551 136.83 19.551H141.639Z" fill="#fff"/>
<path d="M153.956 40.7592C153.721 41.0831 153.953 41.5358 154.355 41.5358H165.624C165.895 41.5358 166.116 41.7551 166.116 42.0256V45.5102C166.116 45.7807 165.895 46 165.624 46H147.166C146.894 46 146.674 45.7807 146.674 45.5102V41.6948C146.674 41.5915 146.707 41.4908 146.768 41.4072L158.882 24.7926C159.118 24.4688 158.885 24.0152 158.483 24.0152H147.166C146.894 24.0152 146.674 23.7959 146.674 23.5254V20.0408C146.674 19.7703 146.894 19.551 147.166 19.551H165.624C165.895 19.551 166.116 19.7703 166.116 20.0408V23.8567C166.116 23.9597 166.083 24.0601 166.022 24.1436L153.956 40.7592Z" fill="#fff"/>
<path d="M194.663 32.148C194.663 32.9427 194.618 33.6737 194.529 34.3412C194.497 34.5784 194.291 34.751 194.051 34.751H174.393C174.106 34.751 173.878 34.9952 173.918 35.2783C174.168 37.0804 174.948 38.5471 176.259 39.6783C177.695 40.9178 179.457 41.5376 181.545 41.5376C184.435 41.5376 186.509 40.432 187.766 38.2208C187.856 38.0615 188.024 37.9584 188.208 37.9584H193.239C193.577 37.9584 193.814 38.2898 193.685 38.6011C192.833 40.6682 191.429 42.3908 189.475 43.7688C187.353 45.2563 184.71 46 181.545 46C178.967 46 176.65 45.4577 174.595 44.3731C172.571 43.2575 170.972 41.708 169.798 39.7248C168.656 37.7105 168.084 35.3863 168.084 32.7523C168.084 30.1182 168.639 27.8095 169.749 25.8263C170.891 23.812 172.473 22.2625 174.497 21.1779C176.552 20.0933 178.902 19.551 181.545 19.551C184.09 19.551 186.358 20.0778 188.349 21.1314C190.339 22.1851 191.889 23.6725 192.999 25.5938C194.108 27.4842 194.663 29.6689 194.663 32.148ZM188.338 30.4746C188.613 30.4746 188.836 30.2499 188.814 29.9771C188.673 28.2547 187.947 26.8556 186.636 25.7798C185.2 24.6022 183.421 24.0134 181.3 24.0134C179.375 24.0134 177.727 24.6022 176.357 25.7798C175.116 26.818 174.329 28.1993 173.998 29.9236C173.942 30.2141 174.173 30.4746 174.47 30.4746H188.338Z" fill="#fff"/>
<path d="M303.431 30.4338C303.431 31.2285 303.386 31.9595 303.297 32.627C303.265 32.8641 303.059 33.0368 302.818 33.0368H283.161C282.874 33.0368 282.646 33.281 282.685 33.564C282.936 35.3662 283.716 36.8329 285.026 37.9641C286.462 39.2036 288.224 39.8234 290.313 39.8234C293.203 39.8234 295.276 38.7178 296.533 36.5066C296.624 36.3472 296.791 36.2442 296.975 36.2442H302.006C302.344 36.2442 302.581 36.5756 302.453 36.8869C301.6 38.954 300.197 40.6766 298.242 42.0546C296.121 43.542 293.478 44.2858 290.313 44.2858C287.735 44.2858 285.418 43.7435 283.362 42.6589C281.339 41.5433 279.74 39.9938 278.565 38.0105C277.423 35.9963 276.852 33.6721 276.852 31.038C276.852 28.404 277.407 26.0953 278.516 24.112C279.658 22.0978 281.241 20.5483 283.264 19.4637C285.32 18.3791 287.67 17.8368 290.313 17.8368C292.858 17.8368 295.126 18.3636 297.116 19.4172C299.107 20.4709 300.657 21.9583 301.766 23.8796C302.876 25.7699 303.431 27.9547 303.431 30.4338ZM297.105 28.7604C297.381 28.7604 297.604 28.5356 297.582 28.2628C297.441 26.5405 296.715 25.1414 295.403 24.0656C293.967 22.888 292.189 22.2992 290.068 22.2992C288.143 22.2992 286.495 22.888 285.124 24.0656C283.883 25.1038 283.097 26.4851 282.766 28.2093C282.71 28.4998 282.941 28.7604 283.238 28.7604H297.105Z" fill="#fff"/>
<path d="M254.177 35.9652C254.365 36.304 254.854 36.3033 255.04 35.964L268.217 11.9693C268.303 11.8121 268.469 11.7144 268.649 11.7144H272.541C272.812 11.7144 273.033 11.9336 273.033 12.2042V43.796C273.033 44.0665 272.812 44.2858 272.541 44.2858H267.914C267.642 44.2858 267.422 44.0665 267.422 43.796V25.5932C267.422 25.0889 266.748 24.9137 266.5 25.3535L255.967 44.0357C255.88 44.1901 255.715 44.2858 255.537 44.2858H253.309C253.131 44.2858 252.966 44.1898 252.879 44.0348L242.533 25.595C242.286 25.1542 241.611 25.329 241.611 25.8338V43.796C241.611 44.0665 241.391 44.2858 241.119 44.2858H236.492C236.22 44.2858 236 44.0665 236 43.796V12.2042C236 11.9336 236.22 11.7144 236.492 11.7144H240.478C240.658 11.7144 240.823 11.8116 240.91 11.968L254.177 35.9652Z" fill="#fff"/>
<path d="M220.015 0.0193849C220.815 -0.0749987 221.803 0.187612 222.5 0.539431C223.691 1.14836 224.57 2.16974 224.941 3.37738C225.197 4.23158 225.187 5.05082 224.881 5.89184C224.552 6.79797 223.971 7.63126 223.463 8.45987L221.539 11.5912L215.51 21.5363L224.206 20.5916C226.189 20.3585 228.496 19.9585 230.468 19.9536C231.444 19.9512 232.268 20.1648 232.971 20.8201C233.596 21.4035 234.009 22.2385 234 23.0652C233.992 23.7978 233.66 24.3549 233.24 24.9552C232.668 25.7735 231.995 26.5487 231.365 27.3307L228.311 31.1136C224.616 35.621 220.879 40.0994 217.101 44.5486C215.179 46.8466 213.242 49.134 211.291 51.4109C210.302 52.5859 209.268 54.03 208.143 55.064C207.881 55.2872 207.583 55.4725 207.261 55.6137C206.251 56.0676 205.085 56.124 204.03 55.7697C202.988 55.4247 202.252 54.731 201.797 53.8096C201.378 52.9602 201.242 52.1035 201.499 51.1957C201.897 49.7867 203.396 47.5944 204.201 46.2433C206.11 43.0448 207.98 39.8261 209.809 36.588C210.579 35.213 211.522 33.7802 212.097 32.3291L212.128 32.2487C211.455 32.282 210.784 32.4042 210.117 32.4911C208.193 32.7417 206.254 32.9232 204.326 33.153C202.808 33.3338 200.703 33.7441 199.239 33.6305C198.579 33.5795 197.955 33.3675 197.429 32.9947C196.632 32.4305 196.151 31.555 196.029 30.6435C195.926 29.8636 196.1 29.1434 196.5 28.4551C197.391 26.9232 198.842 25.1985 199.935 23.746L206.223 15.3747L212.979 6.31551C214.135 4.76121 215.24 3.09277 216.518 1.62461C217.419 0.590065 218.614 0.156229 220.015 0.0193849Z" fill="#fff"/>
<path d="M220.161 1.26074C220.644 1.20393 221.381 1.37448 221.938 1.65527C222.787 2.09161 223.4 2.7881 223.692 3.58398L223.746 3.74512C223.926 4.35122 223.915 4.89194 223.707 5.46484C223.502 6.02767 223.185 6.54519 222.802 7.15723L222.397 7.80566L220.475 10.9365H220.474L220.471 10.9434L214.441 20.8887L213.129 23.0527L215.645 22.7793L224.342 21.834L224.353 21.833C226.442 21.5874 228.595 21.2078 230.472 21.2031C231.245 21.2013 231.721 21.3637 232.118 21.7344C232.532 22.1203 232.754 22.6337 232.75 23.0518C232.747 23.3764 232.619 23.6617 232.216 24.2383C231.676 25.0102 231.061 25.716 230.393 26.5459L227.345 30.3213C223.654 34.8232 219.921 39.2956 216.147 43.7393L216.142 43.7471C214.223 46.0411 212.289 48.3246 210.342 50.5977L210.334 50.6064C209.255 51.8889 208.353 53.1656 207.313 54.127C207.15 54.2625 206.964 54.3789 206.759 54.4688L206.748 54.4736C206.027 54.7976 205.186 54.8396 204.428 54.585L204.423 54.583L204.17 54.4854C203.684 54.2704 203.316 53.9347 203.045 53.4883L202.918 53.2559C202.647 52.7072 202.564 52.2276 202.653 51.7441L202.701 51.5361C202.852 51.0032 203.249 50.2265 203.775 49.3311C204.029 48.8995 204.297 48.4667 204.557 48.0498C204.812 47.639 205.064 47.2339 205.273 46.8828L205.274 46.8838C207.188 43.6769 209.063 40.4498 210.897 37.2031L210.899 37.1982C211.605 35.938 212.644 34.3433 213.259 32.7891L213.262 32.7822L213.293 32.7021L213.992 30.9053L212.066 31C211.328 31.0365 210.538 31.1762 209.956 31.252C208.026 31.5033 206.163 31.6756 204.178 31.9121C203.781 31.9594 203.349 32.0204 202.919 32.082C202.483 32.1444 202.045 32.208 201.609 32.2617C200.722 32.3713 199.934 32.4303 199.335 32.3838C198.881 32.3486 198.477 32.2059 198.15 31.9746C197.722 31.6712 197.428 31.2102 197.309 30.7002L197.269 30.4785C197.206 30.0086 197.301 29.5653 197.581 29.084C198.423 27.637 199.773 26.0403 200.934 24.4971H200.935L207.222 16.125L207.225 16.1221L213.98 7.0625L213.981 7.06152C215.042 5.63503 215.963 4.25899 217.006 2.98535L217.461 2.44531C218.081 1.73328 218.926 1.38194 220.136 1.26367L220.148 1.2627L220.161 1.26074Z" fill="#fff" stroke="black" stroke-width="2.5"/>
</svg>
