<svg xmlns="http://www.w3.org/2000/svg" width="199" height="56" fill="none"><path fill="#fff" d="M13.547 19.5c.158 0 .285.128.285.286v1.97a.285.285 0 0 1-.285.286H8.841a.286.286 0 0 0-.285.286v15.886a.285.285 0 0 1-.285.286H5.59a.285.285 0 0 1-.285-.286V22.328a.286.286 0 0 0-.285-.286H.285A.285.285 0 0 1 0 21.757v-1.971c0-.158.128-.286.285-.286zM20.322 38.5q-2.197 0-3.97-.949a7.17 7.17 0 0 1-2.79-2.712q-1.013-1.762-1.013-4.067 0-2.277 1.042-4.04a7.07 7.07 0 0 1 2.845-2.712q1.802-.949 4.027-.949t4.028.95a7.07 7.07 0 0 1 2.844 2.711q1.043 1.763 1.043 4.04t-1.07 4.04a7.36 7.36 0 0 1-2.93 2.739q-1.83.95-4.056.949m0-2.684q1.239 0 2.31-.57 1.099-.57 1.774-1.708.675-1.14.676-2.766 0-1.626-.648-2.738-.647-1.14-1.718-1.709a4.84 4.84 0 0 0-2.31-.57q-1.238 0-2.309.57-1.041.57-1.661 1.709-.62 1.111-.62 2.738 0 2.413 1.267 3.742 1.296 1.302 3.24 1.302M37.11 30.815a.286.286 0 0 0 0 .399l6.624 6.8a.286.286 0 0 1-.205.486h-3.617a.28.28 0 0 1-.21-.093l-5.275-5.811a.285.285 0 0 0-.496.192v5.426a.285.285 0 0 1-.285.286h-2.702a.285.285 0 0 1-.285-.286V18.643c0-.158.128-.286.285-.286h2.702c.157 0 .285.128.285.286v10.664c0 .263.325.387.499.19l5.586-6.33a.28.28 0 0 1 .213-.096h3.73c.253 0 .381.304.205.485zM59.75 30.42q0 .695-.078 1.279a.28.28 0 0 1-.277.24h-11.39a.273.273 0 0 0-.276.307q.217 1.576 1.356 2.566 1.248 1.085 3.063 1.085 2.513 0 3.605-1.935a.3.3 0 0 1 .256-.153h2.915c.196 0 .333.193.26.375q-.742 1.808-2.44 3.015-1.844 1.3-4.596 1.301-2.24 0-4.027-.949a7.26 7.26 0 0 1-2.78-2.712q-.992-1.762-.992-4.067 0-2.304.964-4.04a6.8 6.8 0 0 1 2.751-2.712q1.787-.949 4.084-.949 2.213 0 3.943.922a6.65 6.65 0 0 1 2.694 2.603q.965 1.655.965 3.824m-3.666-.977c.16 0 .29-.13.276-.29q-.122-1.506-1.262-2.448-1.248-1.03-3.091-1.03-1.673 0-2.865 1.03-1.08.909-1.367 2.417a.273.273 0 0 0 .274.322zM69.897 23.071q1.839 0 3.282.744a5.35 5.35 0 0 1 2.292 2.204q.82 1.461.82 3.527v8.668a.285.285 0 0 1-.285.286h-2.627a.285.285 0 0 1-.285-.286v-8.2q0-2.039-1.047-3.113-1.046-1.102-2.858-1.102-1.81 0-2.885 1.102-1.047 1.074-1.047 3.113v8.2a.285.285 0 0 1-.285.286h-2.656a.285.285 0 0 1-.285-.286V23.357c0-.158.128-.286.285-.286h2.656c.157 0 .285.128.285.286v.919c0 .266.345.4.546.226q.633-.55 1.463-.907a6.7 6.7 0 0 1 2.63-.524M80.655 21.482q-.885 0-1.483-.573a1.88 1.88 0 0 1-.6-1.418q0-.846.6-1.418.599-.573 1.483-.573.855 0 1.454.573.6.572.6 1.418t-.6 1.418q-.599.573-1.454.573m1.417 1.59c.158 0 .286.129.285.287l-.103 14.857a.285.285 0 0 1-.285.284h-2.683a.285.285 0 0 1-.285-.286V23.357c0-.158.127-.286.285-.286zM89.21 35.443a.286.286 0 0 0 .23.453h6.53c.158 0 .285.128.285.286v2.032a.285.285 0 0 1-.285.286H85.275a.285.285 0 0 1-.285-.286V35.99c0-.06.019-.12.054-.168l7.02-9.692a.286.286 0 0 0-.231-.454h-6.558a.285.285 0 0 1-.285-.285v-2.033c0-.158.128-.286.285-.286H95.97c.158 0 .285.128.285.286v2.226c0 .06-.019.119-.054.167zM112.797 30.42a10 10 0 0 1-.078 1.279.28.28 0 0 1-.277.24h-11.39a.273.273 0 0 0-.276.307q.217 1.576 1.357 2.566 1.248 1.085 3.063 1.085 2.512 0 3.604-1.935a.3.3 0 0 1 .257-.153h2.915c.195 0 .333.193.258.375q-.741 1.808-2.439 3.015-1.844 1.3-4.595 1.301-2.24 0-4.028-.949a7.26 7.26 0 0 1-2.78-2.712q-.992-1.762-.992-4.067 0-2.304.964-4.04a6.8 6.8 0 0 1 2.752-2.712q1.786-.949 4.084-.949 2.212 0 3.942.922a6.64 6.64 0 0 1 2.695 2.603q.964 1.655.964 3.824m-3.665-.977a.27.27 0 0 0 .276-.29q-.123-1.506-1.262-2.448-1.248-1.03-3.092-1.03-1.673 0-2.865 1.03-1.078.909-1.366 2.417a.273.273 0 0 0 .273.322zM199 29.586a10 10 0 0 1-.078 1.28.28.28 0 0 1-.277.239h-11.39a.273.273 0 0 0-.276.307q.217 1.578 1.357 2.567 1.248 1.085 3.063 1.085 2.512 0 3.604-1.935a.3.3 0 0 1 .257-.153h2.915c.195 0 .333.193.258.375q-.741 1.809-2.439 3.014-1.844 1.302-4.595 1.302-2.24 0-4.028-.95a7.26 7.26 0 0 1-2.779-2.71q-.993-1.764-.993-4.068 0-2.305.964-4.04a6.8 6.8 0 0 1 2.752-2.712q1.786-.95 4.084-.949 2.212 0 3.942.922a6.64 6.64 0 0 1 2.695 2.603q.964 1.654.964 3.823m-3.665-.976a.27.27 0 0 0 .276-.29q-.123-1.507-1.262-2.448-1.248-1.03-3.092-1.03-1.673 0-2.865 1.03-1.078.908-1.366 2.417a.273.273 0 0 0 .273.321zM170.46 32.813a.285.285 0 0 0 .5 0l7.635-13.998a.28.28 0 0 1 .251-.148h2.255c.157 0 .285.128.285.285v18.429a.286.286 0 0 1-.285.286h-2.681a.285.285 0 0 1-.285-.286V26.763c0-.295-.391-.397-.534-.14l-6.104 10.898a.28.28 0 0 1-.249.146h-1.291a.29.29 0 0 1-.249-.147l-5.995-10.756c-.143-.257-.534-.155-.534.14V37.38a.286.286 0 0 1-.285.286h-2.681a.286.286 0 0 1-.286-.286V18.953c0-.158.128-.286.286-.286h2.309c.104 0 .2.056.25.148zM143.308 0l-24.521 31.23 19.303-1.615L125.221 56l29.491-33.923-23.056 2.692z"/></svg>